<svg width="36" height="36" fill="none" xmlns="http://www.w3.org/2000/svg"><path d="M18 35a17 17 0 100-34 17 17 0 000 34z" stroke="#fff" stroke-opacity=".5" stroke-width="2"/><g opacity=".8" fill="#fff"><path d="M23 18a5 5 0 11-9.9-1.1h-.9v6.8h11.4v-6.8h-.9L23 18z"/><path d="M18 20.7a2.7 2.7 0 100-5.4 2.7 2.7 0 000 5.4zM23.7 12.3h-3v3h3v-3z"/><path d="M18 2a16 16 0 100 32 16 16 0 000-32zm8 21.7a2.3 2.3 0 01-2.3 2.3H12.3a2.3 2.3 0 01-2.3-2.3V12.3a2.3 2.3 0 012.3-2.3h11.4a2.3 2.3 0 012.3 2.3v11.4z"/></g></svg>