<svg width="36" height="36" fill="none" xmlns="http://www.w3.org/2000/svg"><path d="M18 35a17 17 0 100-34 17 17 0 000 34z" stroke="#fff" stroke-opacity=".5" stroke-width="2"/><path d="M18.6 16.5c.4 0 .7 0 1-.2.3 0 .5-.3.6-.6l.2-.8c0-.2 0-.4-.2-.7a1 1 0 00-.6-.5 3 3 0 00-1-.1h-2v3h.6l1.4-.1zM20.1 19h-3.5v3.5h2.5c.4 0 .8 0 1.2-.3.3 0 .6-.3.7-.6.2-.2.3-.6.3-.9 0-.3-.1-.7-.3-1-.2-.3-.5-.5-.9-.6z" fill="#fff" fill-opacity=".8"/><path d="M18 2a16 16 0 100 32 16 16 0 000-32zm6.6 20.5c-.3.6-.6 1-1.1 1.4-.6.4-1.2.7-1.9.8-.8.2-1.6.3-2.5.3H13V11h5.4l2.5.1c.6 0 1.1.3 1.6.5s.9.6 1.2 1.1c.2.5.4 1 .4 1.6a3 3 0 01-.6 1.8c-.4.5-.9.9-1.5 1.1v.1a4 4 0 012.2 1.1c.5.7.8 1.5.8 2.3 0 .6-.1 1.3-.4 1.8z" fill="#fff" fill-opacity=".8"/></svg>