<svg width="108" height="39" fill="none" xmlns="http://www.w3.org/2000/svg"><path d="M44.6 28.4h.5v1.3c-.3.2-.7.2-1.1.2-.4 0-.7 0-1-.2-.3-.2-.6-.4-.7-.8-.9.8-2 1.2-3.2 1.2-1.5 0-2.9-.9-2.9-2.7 0-2.3 2-3 3.7-3 .8 0 1.5.1 2.2.3v-.3c0-1.1-.7-1.9-2.2-1.9-1 0-2 .2-3 .7v-1.8c1-.4 2.1-.6 3.2-.6 2.4 0 3.8 1.2 3.8 3.8v3.2l.1.4a.5.5 0 00.6.2zM38 27.2c0 .4.2.7.5 1 .3.2.6.4 1 .3h.1c1 0 1.8-.3 2.4-1V26l-1.8-.2c-1 0-2.2.3-2.2 1.4zM50.5 20.8c.9 0 1.8.2 2.6.6v1.8c-.7-.4-1.5-.7-2.3-.7-.8 0-1.5.2-2 .7a3 3 0 00-.3 4.1 2.7 2.7 0 002.3 1c.8 0 1.7-.2 2.4-.7v1.9a6 6 0 01-2.8.6 4 4 0 01-3-1.1 4.4 4.4 0 01-1.4-3v-.5a4.8 4.8 0 011.1-3.3 4.3 4.3 0 013-1.4h.4zM62.7 28.4h.5v1.3c-.4.2-.8.2-1.2.2-.3 0-.6 0-1-.2-.2-.2-.5-.4-.6-.8-1 .8-2 1.2-3.2 1.2-1.5 0-2.9-.9-2.9-2.7 0-2.3 2-3 3.7-3 .8 0 1.5.1 2.2.3v-.3c0-1.1-.8-1.9-2.2-1.9-1 0-2 .2-3 .7v-1.8c1-.4 2.1-.6 3.2-.6 2.4 0 3.8 1.2 3.8 3.8v3.2l.1.4a.5.5 0 00.6.2zm-6.5-1.2c0 .4.2.7.5 1 .3.2.6.4 1 .3 1 0 1.9-.3 2.5-1V26l-1.8-.2c-1 0-2.2.3-2.2 1.4zM73 17v12.8h-1.7v-1.4a4 4 0 01-1.4 1.2c-.6.3-1.2.5-1.8.5-1.1-.1-2.1-.6-3-1.5-.7-.9-1.1-2-1.1-3.2 0-1.2.4-2.3 1.2-3.2.8-.8 1.8-1.4 3-1.4.5 0 1 0 1.6.3.5.3 1 .6 1.3 1V17h2-.1zm-4.6 5.5c-.7 0-1.4.3-2 .8a3 3 0 00-.7 2.1c0 .8.3 1.5.8 2a2.7 2.7 0 003.5.4 3 3 0 001.1-1.3v-2.2a3 3 0 00-1-1.3c-.5-.3-1-.5-1.7-.5zM79 20.8c3.3 0 4.5 2.8 4 5.3h-6.4c.3 1.6 1.7 2.3 3.2 2.3 1 0 1.8-.2 2.7-.6v1.7c-1 .4-2 .6-3 .6-2.6 0-4.8-1.6-4.8-4.7 0-1.2.4-2.3 1.1-3.2.7-.8 1.8-1.4 2.9-1.4h.3zm0 1.6a2.2 2.2 0 00-1.6.6 2.4 2.4 0 00-.8 1.6h4.7a2.2 2.2 0 00-.5-1.4 2 2 0 00-1.3-.8h-.4zM84.8 21h1.7v1.1c.3-.4.7-.7 1.2-1l1.5-.3c.5 0 1 0 1.5.3.5.2.9.6 1.1 1a4.2 4.2 0 013-1.3 3 3 0 012.3 1 3.3 3.3 0 01.8 2.5v5.5H96v-5.4c0-.5 0-1-.4-1.3-.2-.3-.6-.5-1-.6h-.2c-.4 0-.8.2-1.2.4a3 3 0 00-.9.8v6.1h-1.9v-5.4c0-.5 0-1-.3-1.3-.3-.3-.7-.5-1.1-.6h-.2c-.5 0-.9.2-1.3.4a3 3 0 00-1 1v6h-1.7V21zM106.1 21h1.9l-3.9 10c-1 2.3-2 3-3.4 3a5 5 0 01-1-.1v-1.6h.8c1 0 1.6-.6 2-2l.2-.4-4-8.9h2.1l2.9 6.7L106 21zM38.7 1.5v5a3.8 3.8 0 012.7-1.1 3 3 0 012.3.8 3.4 3.4 0 011.1 2.4V14.4H43V9.2a2 2 0 00-.4-1.4 1.8 1.8 0 00-1.2-.7H41c-.4 0-.9.1-1.3.4a3 3 0 00-1 1v5.9h-1.9V1.5h1.9zM49.9 2.4v3.2h3v1.7h-3v4c0 1.2.5 1.6 1.6 1.6.6 0 1.1-.2 1.7-.4v1.7c-.8.3-1.5.4-2.3.4A2.4 2.4 0 0149 14a2.7 2.7 0 01-1-1.8V7.3h-1.4V5.5H48V3l1.9-.5zM55.3 14.4V5.6h1.6v1a3.8 3.8 0 012.8-1.3l1.5.3c.5.3.9.7 1.1 1.1a4.2 4.2 0 013-1.4 3 3 0 012.3 1 3.3 3.3 0 01.8 2.6v5.5h-2V8.9a1.8 1.8 0 00-.2-1.2A1.6 1.6 0 0065 7h-.3c-.4 0-.7.1-1 .3a3 3 0 00-1 .9v6H61V9a1.8 1.8 0 00-.3-1.2 1.6 1.6 0 00-1.1-.6h-.3c-.4 0-.8.1-1.2.4a3 3 0 00-1 1v5.9h-1.7zM73 1.5H71v12.9H73V1.5zM14.7 0h-.2L0 1.6v28.2L14.5 39l14.6-9.2V1.6L14.7 0zm12.5 28.7l-12.7 8-12.6-8V17l12.6 8v1.4l-8.6-5.4v1.4l8.6 5.5v1.4L6 24v1.4l8.6 5.5 8.8-5.6v-6l3.9-2.4v11.8zm0-13.3l-3.5 2.2-1.6 1-7.6-4.8v1.4l6.5 4-.2.2-1 .5-5.3-3.3v1.3l4.2 2.7-1 .7-3.2-2v1.4l2.1 1.3-2.1 1.4-12.5-8 12.5-7.9 12.7 8zm0-1.4L14.5 6 1.9 14V3.4L14.6 2l12.6 1.4V14z" fill="#fff"/></svg>